<?xml version="1.0" encoding="UTF-8" standalone="no"?>
<!DOCTYPE svg PUBLIC "-//W3C//DTD SVG 1.1//EN" "http://www.w3.org/Graphics/SVG/1.1/DTD/svg11.dtd">
<svg xmlns="http://www.w3.org/2000/svg" version="1.1" viewBox="0.00 0.00 1886.00 280.00">
<path fill="#e63130" d="
  M 134.04 185.75
  Q 151.38 183.74 165.75 172.94
  A 0.48 0.48 0.0 0 1 166.52 173.32
  L 166.49 203.52
  Q 166.49 204.11 165.96 204.38
  C 148.88 213.06 128.92 216.26 109.90 214.43
  C 67.73 210.35 37.26 179.18 31.90 137.57
  C 22.11 61.58 95.34 15.20 163.01 43.54
  Q 163.50 43.75 163.50 44.28
  L 163.50 76.97
  A 0.42 0.41 19.6 0 1 162.82 77.29
  C 129.33 50.41 81.73 64.98 72.34 108.26
  C 63.52 148.92 88.43 191.04 134.04 185.75
  Z"
/>
<path fill="#004b95" d="
  M 946.85 137.33
  C 937.37 61.56 1010.18 15.25 1077.96 43.45
  Q 1078.50 43.68 1078.50 44.26
  L 1078.50 76.96
  A 0.46 0.46 0.0 0 1 1077.76 77.32
  C 1043.30 49.52 995.02 66.18 986.83 110.33
  C 982.57 133.26 988.46 158.59 1006.94 174.08
  C 1028.20 191.90 1059.47 188.88 1080.81 172.93
  A 0.43 0.43 0.0 0 1 1081.50 173.28
  L 1081.50 203.48
  A 1.18 1.17 -12.8 0 1 1080.83 204.54
  C 1023.54 231.88 955.22 204.35 946.85 137.33
  Z"
/>
<path fill="#004b95" d="
  M 1826.07 87.39
  L 1864.16 86.59
  A 0.58 0.58 0.0 0 1 1864.75 87.17
  L 1864.75 110.66
  Q 1864.75 111.82 1863.59 111.79
  L 1826.54 110.86
  Q 1825.52 110.83 1825.51 111.86
  Q 1825.46 135.15 1825.54 158.99
  C 1825.58 172.80 1826.25 187.99 1844.38 187.44
  Q 1854.05 187.15 1862.25 181.82
  A 0.81 0.81 0.0 0 1 1863.50 182.50
  L 1863.50 205.48
  Q 1863.50 206.03 1863.02 206.29
  C 1841.68 217.51 1806.90 219.41 1795.56 192.95
  C 1792.69 186.27 1791.91 178.39 1791.97 170.22
  Q 1792.38 119.21 1791.16 68.22
  Q 1791.15 67.64 1791.72 67.54
  Q 1808.84 64.46 1825.17 58.47
  Q 1825.93 58.19 1825.92 59.00
  L 1825.49 86.82
  Q 1825.48 87.40 1826.07 87.39
  Z"
/>
<path fill="#004b95" d="
  M 1570.25 151.05
  C 1571.13 161.72 1572.51 170.50 1580.17 178.32
  C 1598.26 196.78 1633.61 190.39 1652.92 178.20
  Q 1653.50 177.84 1653.50 178.52
  L 1653.50 203.22
  Q 1653.50 203.78 1652.98 204.01
  C 1609.27 223.60 1542.24 216.67 1536.45 156.89
  C 1532.62 117.35 1554.79 84.63 1596.52 82.18
  C 1637.92 79.76 1661.14 110.36 1658.09 149.96
  Q 1658.05 150.50 1657.50 150.50
  L 1570.75 150.50
  Q 1570.20 150.50 1570.25 151.05
  Z
  M 1605.13 105.51
  C 1587.24 103.36 1575.79 113.94 1571.55 130.44
  A 0.45 0.45 0.0 0 0 1571.99 131.00
  L 1626.78 131.00
  Q 1627.40 131.00 1627.33 130.38
  C 1625.95 117.80 1618.04 107.06 1605.13 105.51
  Z"
/>
<path fill="#e63130" d="
  M 264.08 190.65
  A 0.25 0.25 0.0 0 0 263.62 190.52
  Q 254.17 205.87 237.28 211.51
  C 207.05 221.61 174.37 202.40 181.98 167.25
  C 185.49 151.06 197.71 143.79 212.53 139.60
  C 228.38 135.12 244.72 132.37 260.01 126.15
  Q 260.44 125.98 260.45 125.51
  C 260.70 110.01 250.68 105.33 236.69 104.56
  Q 215.36 103.38 197.33 116.03
  A 0.37 0.37 0.0 0 1 196.75 115.73
  L 196.75 91.77
  Q 196.75 91.20 197.28 90.98
  C 221.04 81.34 255.04 78.50 277.93 92.31
  C 297.34 104.01 295.03 131.29 294.10 150.68
  Q 292.65 180.89 298.14 210.59
  Q 298.25 211.19 297.65 211.07
  Q 282.32 208.07 266.95 210.89
  Q 266.17 211.04 266.00 210.26
  Q 263.99 200.57 264.08 190.65
  Z
  M 220.94 184.81
  Q 230.51 191.68 242.13 186.88
  C 260.18 179.42 262.47 162.00 261.94 144.72
  Q 261.91 143.96 261.23 144.28
  Q 248.10 150.37 233.83 154.68
  C 229.07 156.12 224.36 157.81 221.04 160.30
  C 213.58 165.90 213.11 179.20 220.94 184.81
  Z"
/>
<path fill="#e63130" d="
  M 354.75 105.19
  C 369.46 88.83 383.02 78.75 406.26 84.48
  C 416.23 86.94 421.75 93.87 426.19 102.91
  Q 426.45 103.46 426.85 103.00
  C 429.18 100.35 431.57 97.31 433.95 95.16
  Q 450.46 80.28 473.26 83.50
  C 494.63 86.51 505.24 101.37 506.88 122.29
  Q 507.19 126.27 507.22 133.34
  C 507.33 159.14 507.04 184.73 508.99 210.48
  A 0.46 0.46 0.0 0 1 508.46 210.97
  Q 490.86 208.06 473.25 211.02
  A 0.66 0.66 0.0 0 1 472.48 210.36
  Q 473.33 173.91 472.98 137.31
  Q 472.90 128.77 470.66 120.54
  C 467.65 109.42 455.55 108.71 446.31 112.81
  Q 438.67 116.21 432.31 124.62
  Q 432.04 124.97 432.04 125.40
  Q 431.78 167.98 433.96 210.51
  A 0.45 0.45 0.0 0 1 433.44 210.97
  C 421.25 208.97 410.94 209.62 398.27 210.81
  Q 397.66 210.87 397.69 210.26
  Q 399.38 175.87 399.12 141.51
  C 399.04 130.95 399.14 114.05 385.86 110.96
  C 374.03 108.21 362.17 117.90 355.86 127.75
  Q 355.61 128.13 355.61 128.58
  Q 355.10 169.47 357.25 210.30
  A 0.56 0.55 2.6 0 1 356.61 210.88
  C 344.51 208.95 333.51 209.59 321.35 210.73
  Q 320.84 210.78 320.86 210.27
  C 322.59 171.87 322.53 126.67 320.87 86.90
  A 0.50 0.50 0.0 0 1 321.46 86.39
  Q 337.55 89.17 353.67 86.32
  Q 354.25 86.22 354.25 86.81
  L 354.25 105.00
  Q 354.25 105.74 354.75 105.19
  Z"
/>
<path fill="#e63130" d="
  M 567.46 102.52
  A 0.20 0.20 0.0 0 0 567.82 102.65
  C 577.10 91.33 587.40 84.32 602.37 83.17
  C 671.82 77.88 685.34 183.41 629.00 209.09
  C 608.78 218.31 582.50 215.57 569.01 196.06
  A 0.28 0.28 0.0 0 0 568.50 196.22
  Q 568.76 230.79 570.68 265.31
  Q 570.71 265.91 570.12 265.84
  C 558.80 264.51 549.27 264.09 538.25 265.55
  Q 536.31 265.81 534.32 265.74
  Q 533.81 265.73 533.83 265.22
  Q 535.47 200.87 534.98 136.50
  Q 534.80 111.47 532.48 86.76
  A 0.46 0.46 0.0 0 1 533.02 86.26
  Q 549.99 89.21 566.96 86.28
  A 0.48 0.48 0.0 0 1 567.52 86.75
  L 567.46 102.52
  Z
  M 598.58 108.39
  C 586.32 107.62 577.42 113.25 570.08 123.23
  Q 568.90 124.83 568.83 126.98
  Q 568.23 144.08 570.55 160.97
  C 573.45 182.16 586.59 193.81 608.52 186.99
  C 629.34 180.51 630.86 150.46 626.51 132.97
  C 623.00 118.80 613.56 109.32 598.58 108.39
  Z"
/>
<path fill="#e63130" d="
  M 823.34 129.76
  C 817.85 102.47 838.60 86.64 863.10 83.95
  Q 894.19 80.53 923.16 92.06
  Q 923.75 92.30 923.75 92.94
  L 923.75 115.98
  Q 923.75 116.71 923.12 116.34
  Q 902.17 104.00 877.77 104.40
  C 869.94 104.52 858.12 108.00 858.05 117.74
  C 857.96 130.74 879.95 133.10 892.44 135.27
  Q 905.93 137.61 916.16 144.33
  C 933.10 155.45 933.73 179.86 922.05 194.81
  C 900.90 221.87 852.33 216.00 824.97 203.46
  A 0.82 0.82 0.0 0 1 824.50 202.72
  L 824.50 181.08
  A 0.34 0.34 0.0 0 1 824.98 180.77
  Q 845.76 190.29 868.75 190.72
  C 877.86 190.89 893.38 189.46 896.50 178.74
  C 899.76 167.55 887.25 162.30 878.68 160.83
  Q 858.21 157.30 843.29 151.77
  C 833.76 148.24 825.45 140.26 823.34 129.76
  Z"
/>
<path fill="#004b95" d="
  M 1144.83 210.21
  C 1079.84 188.77 1089.27 91.97 1158.77 83.71
  C 1196.79 79.20 1229.96 100.27 1235.48 139.81
  Q 1237.66 155.46 1232.38 170.76
  C 1219.76 207.34 1179.87 221.77 1144.83 210.21
  Z
  M 1167.32 108.35
  C 1152.64 108.78 1141.98 119.26 1138.47 132.99
  C 1132.52 156.27 1139.16 189.68 1170.16 188.66
  C 1198.07 187.74 1203.58 156.17 1199.02 134.98
  C 1195.54 118.80 1184.66 107.84 1167.32 108.35
  Z"
/>
<path fill="#004b95" d="
  M 1293.48 105.51
  A 0.29 0.29 0.0 0 0 1294.01 105.69
  C 1303.44 92.69 1314.13 84.08 1330.80 83.00
  C 1357.30 81.29 1372.29 98.41 1372.71 123.75
  C 1373.20 152.71 1372.32 180.69 1374.52 210.54
  Q 1374.57 211.15 1373.97 211.05
  Q 1356.26 208.05 1338.54 210.99
  A 0.48 0.46 87.7 0 1 1338.00 210.48
  Q 1341.24 170.31 1339.24 130.00
  C 1338.78 120.69 1333.20 111.84 1323.54 110.69
  C 1312.63 109.40 1301.64 117.87 1295.85 126.75
  Q 1294.76 128.43 1294.72 130.60
  Q 1294.00 170.42 1295.82 210.27
  A 0.52 0.52 0.0 0 1 1295.26 210.81
  C 1289.53 210.32 1283.40 209.45 1278.14 209.51
  Q 1268.77 209.60 1259.49 211.01
  A 0.65 0.64 88.3 0 1 1258.75 210.31
  Q 1260.20 194.63 1260.59 178.68
  C 1261.35 148.23 1261.66 117.34 1259.23 86.95
  A 0.66 0.66 0.0 0 1 1260.00 86.25
  Q 1276.46 89.17 1292.92 86.31
  A 0.50 0.50 0.0 0 1 1293.51 86.80
  L 1293.48 105.51
  Z"
/>
<path fill="#004b95" d="
  M 1434.94 105.67
  C 1448.92 87.90 1463.84 78.47 1487.75 84.81
  C 1506.21 89.71 1513.47 106.17 1513.75 124.01
  C 1514.20 152.77 1513.24 181.63 1515.46 210.32
  A 0.62 0.62 0.0 0 1 1514.74 210.98
  Q 1497.13 208.08 1479.51 210.98
  Q 1478.92 211.08 1478.97 210.48
  Q 1482.34 168.82 1480.25 130.01
  C 1479.74 120.69 1474.23 111.82 1464.54 110.69
  C 1453.58 109.41 1442.54 117.87 1436.84 126.89
  Q 1435.73 128.65 1435.69 130.92
  Q 1435.01 169.88 1436.81 210.04
  Q 1436.85 211.07 1435.83 210.91
  Q 1418.16 208.12 1400.51 211.05
  A 0.65 0.64 -2.1 0 1 1399.76 210.36
  C 1401.52 190.86 1401.70 171.50 1401.99 151.93
  Q 1402.48 119.22 1400.30 86.66
  A 0.39 0.39 0.0 0 1 1400.76 86.25
  Q 1417.26 89.15 1433.76 86.39
  A 0.65 0.65 0.0 0 1 1434.52 87.03
  L 1434.46 105.51
  Q 1434.46 106.28 1434.94 105.67
  Z"
/>
<path fill="#004b95" d="
  M 1723.89 212.39
  C 1651.38 197.47 1659.58 87.15 1733.46 83.13
  Q 1752.59 82.09 1771.45 89.19
  A 0.87 0.85 -79.8 0 1 1772.00 90.00
  L 1772.00 117.17
  A 0.37 0.37 0.0 0 1 1771.40 117.46
  C 1759.04 107.78 1740.38 104.63 1726.57 113.51
  C 1712.69 122.43 1707.41 139.38 1709.53 155.48
  C 1714.01 189.46 1750.03 197.59 1774.69 178.98
  A 0.35 0.35 0.0 0 1 1775.25 179.26
  L 1775.25 204.80
  Q 1775.25 205.35 1774.76 205.58
  Q 1750.02 217.76 1723.89 212.39
  Z"
/>
<path fill="#e63130" d="
  M 765.90 189.85
  C 758.10 206.52 741.24 215.85 722.82 213.83
  C 686.30 209.82 685.15 177.51 685.84 148.75
  Q 686.59 117.62 684.54 86.56
  A 0.53 0.53 0.0 0 1 685.16 86.01
  Q 702.87 88.88 720.59 86.02
  Q 721.58 85.86 721.52 86.87
  Q 719.56 119.99 719.95 153.25
  C 720.10 166.90 721.18 187.02 740.21 186.39
  C 762.20 185.66 762.72 161.45 762.92 145.75
  Q 763.28 116.08 760.96 86.74
  A 0.60 0.59 -88.1 0 1 761.64 86.10
  C 773.92 88.00 784.72 87.52 797.36 86.09
  Q 797.94 86.02 797.91 86.61
  Q 796.16 125.57 796.48 164.50
  Q 796.66 187.51 800.23 210.10
  A 0.57 0.57 0.0 0 1 799.56 210.75
  Q 784.04 207.84 768.51 210.72
  A 0.57 0.56 -8.9 0 1 767.85 210.25
  Q 766.35 200.17 766.50 189.99
  A 0.32 0.31 58.0 0 0 765.90 189.85
  Z"
/>
</svg>
